<svg xmlns="http://www.w3.org/2000/svg" width="113.404" height="26.732" viewBox="0 0 113.404 26.732">
  <g id="logo" transform="translate(-190.596 -165.617)">
    <g id="Group_1788" data-name="Group 1788" transform="translate(224.356 170.364)">
      <path id="Path_73" data-name="Path 73" d="M329.191-332.635v6.936h-3.412v-6.778a2.809,2.809,0,0,0-.441-1.751,1.669,1.669,0,0,0-1.39-.554,2.36,2.36,0,0,0-1.808.723,2.727,2.727,0,0,0-.678,1.943v6.417h-3.412v-16.629h3.412v6.733a4.035,4.035,0,0,1,1.559-1.378,4.631,4.631,0,0,1,2.1-.475Q329.191-337.448,329.191-332.635Z" transform="translate(-318.052 342.531)" fill="#140404"/>
      <path id="Path_74" data-name="Path 74" d="M429.25-291.315a4.99,4.99,0,0,1-2.1-2.079,6.538,6.538,0,0,1-.734-3.163,6.539,6.539,0,0,1,.734-3.163,4.992,4.992,0,0,1,2.1-2.079,6.742,6.742,0,0,1,3.2-.723,6.625,6.625,0,0,1,3.163.723,5.012,5.012,0,0,1,2.09,2.079,6.544,6.544,0,0,1,.734,3.163,6.543,6.543,0,0,1-.734,3.163,5.01,5.01,0,0,1-2.09,2.079,6.622,6.622,0,0,1-3.163.723A6.739,6.739,0,0,1,429.25-291.315Zm5.129-2.711a4.015,4.015,0,0,0,.667-2.53,4.024,4.024,0,0,0-.667-2.519,2.311,2.311,0,0,0-1.932-.847,2.369,2.369,0,0,0-1.966.847,3.973,3.973,0,0,0-.678,2.519q0,3.367,2.644,3.367A2.324,2.324,0,0,0,434.378-294.026Z" transform="translate(-413.129 307.606)" fill="#140404"/>
      <path id="Path_75" data-name="Path 75" d="M542.332-342.328h3.412V-325.7h-3.412Z" transform="translate(-514.835 342.531)" fill="#140404"/>
      <path id="Path_76" data-name="Path 76" d="M595.542-343.987v3.208H591.9v-3.208Zm-3.525,5.377h3.412v11.455h-3.412Z" transform="translate(-558.33 343.987)" fill="#140404"/>
      <path id="Path_77" data-name="Path 77" d="M650.755-342.328V-325.7h-3.367v-1.695a3.605,3.605,0,0,1-1.469,1.378,4.559,4.559,0,0,1-2.146.5,4.665,4.665,0,0,1-2.621-.757,5.04,5.04,0,0,1-1.8-2.124,7.263,7.263,0,0,1-.644-3.129,7.115,7.115,0,0,1,.644-3.107,4.942,4.942,0,0,1,1.785-2.079,4.757,4.757,0,0,1,2.632-.734,4.544,4.544,0,0,1,2.1.486,3.582,3.582,0,0,1,1.469,1.344v-6.71Zm-4.044,13.342a3.989,3.989,0,0,0,.678-2.5,3.9,3.9,0,0,0-.689-2.474,2.325,2.325,0,0,0-1.932-.87,2.394,2.394,0,0,0-1.966.859,3.768,3.768,0,0,0-.7,2.44,3.993,3.993,0,0,0,.7,2.519,2.354,2.354,0,0,0,1.966.893A2.317,2.317,0,0,0,646.71-328.986Z" transform="translate(-599.399 342.531)" fill="#140404"/>
      <path id="Path_78" data-name="Path 78" d="M766.857-302.228v11.455H763.49v-1.695a3.6,3.6,0,0,1-1.468,1.378,4.559,4.559,0,0,1-2.147.5,4.809,4.809,0,0,1-2.632-.723,4.861,4.861,0,0,1-1.785-2.068,7.112,7.112,0,0,1-.644-3.107,7.338,7.338,0,0,1,.644-3.141,5.033,5.033,0,0,1,1.8-2.135,4.667,4.667,0,0,1,2.621-.757,4.4,4.4,0,0,1,2.147.52,3.763,3.763,0,0,1,1.468,1.4v-1.627Zm-4.044,8.179a3.94,3.94,0,0,0,.678-2.485,3.99,3.99,0,0,0-.678-2.5,2.318,2.318,0,0,0-1.943-.87,2.344,2.344,0,0,0-1.966.9,4,4,0,0,0-.7,2.508,3.8,3.8,0,0,0,.689,2.452,2.4,2.4,0,0,0,1.977.847A2.33,2.33,0,0,0,762.812-294.049Z" transform="translate(-701.267 307.606)" fill="#140404"/>
      <path id="Path_79" data-name="Path 79" d="M875.339-300.126l-5.287,12.065a7.483,7.483,0,0,1-2.452,3.22,8.213,8.213,0,0,1-3.626,1.322l-.791-2.621a7.323,7.323,0,0,0,2.384-.859,3.449,3.449,0,0,0,1.254-1.514l.339-.746-4.722-10.868h3.57l2.937,7.434,3.028-7.434Z" transform="translate(-795.696 305.503)" fill="#140404"/>
    </g>
    <path id="Path_80" data-name="Path 80" d="M42.683-376.933l3.141,3.094h0l13.317-3.515-3.568,13.118h0l3.142,3.095,5.867-21.572Z" transform="translate(147.914 548.331)" fill="#140404" fill-rule="evenodd"/>
  </g>
</svg>
