<svg xmlns="http://www.w3.org/2000/svg" width="319.007" height="221.95" viewBox="0 0 319.007 221.95">
  <g id="picture" transform="translate(-303 -232)">
    <ellipse id="Ellipse_1" data-name="Ellipse 1" cx="63.364" cy="4.807" rx="63.364" ry="4.807" transform="translate(303 444.336)" fill="rgba(255,255,255,0.22)"/>
    <path id="Path_1" data-name="Path 1" d="M324.272,246.275c11.061-4.7,24.838-1.724,38.293.345.125-2.505,1.643-5.555.053-7.3-1.931-2.124-1.754-4.355-.591-6.6,2.972-5.738-1.286-11.845-5.585-16.922a9.522,9.522,0,0,0-7.947-3.336l-7.964.569a9.538,9.538,0,0,0-8.469,6.817h0c-1.9,2.586-2.919,5.165-2.279,7.731-2.848,1.947-3.327,4.3-2.047,6.945a3.992,3.992,0,0,1-.049,4.87,22.483,22.483,0,0,0-3.343,6.64Z" transform="translate(27.312 34.972)" fill="#3f3d56"/>
    <path id="Path_2" data-name="Path 2" d="M631.5,629.281H406.059a7.559,7.559,0,0,1-7.559-7.559h0q122.585-14.247,240.562,0h0a7.559,7.559,0,0,1-7.559,7.559Z" transform="translate(-17.056 -205.409)" fill="#2f2e41"/>
    <path id="Path_3" data-name="Path 3" d="M639.062,394.9,398.5,394.455l27.88-46.912.133-.222V243.933a9.555,9.555,0,0,1,9.557-9.556H600.159a9.555,9.555,0,0,1,9.556,9.557v104.1Z" transform="translate(-17.056 21.857)" fill="#3f3d56"/>
    <path id="Path_4" data-name="Path 4" d="M486.725,250.957a3.116,3.116,0,0,0-3.113,3.113v94.268a3.116,3.116,0,0,0,3.113,3.113H652.584a3.116,3.116,0,0,0,3.113-3.113V254.069a3.116,3.116,0,0,0-3.113-3.113Z" transform="translate(-67.929 11.947)" fill="#fff"/>
    <path id="Path_5" data-name="Path 5" d="M478.331,531.718a1.338,1.338,0,0,0-1.212.776l-8.591,18.676a1.334,1.334,0,0,0,1.212,1.892H650.4a1.334,1.334,0,0,0,1.193-1.931l-9.338-18.676a1.327,1.327,0,0,0-1.193-.737Z" transform="translate(-58.84 -155.87)" fill="#2f2e41"/>
    <path id="Path_6" data-name="Path 6" d="M646.516,593.619a1.336,1.336,0,0,0-1.288.987l-2.155,8a1.334,1.334,0,0,0,1.288,1.681h40.982a1.334,1.334,0,0,0,1.26-1.77l-2.77-8a1.335,1.335,0,0,0-1.261-.9Z" transform="translate(-163.215 -192.869)" fill="#2f2e41"/>
    <path id="Path_7" data-name="Path 7" d="M447.64,337.135v1.779H264.306l.138-.222v-1.556Z" transform="translate(145.019 30.487)" fill="#2f2e41"/>
    <circle id="Ellipse_3" data-name="Ellipse 3" cx="31.126" cy="31.126" r="31.126" transform="translate(556.419 232)" fill="#703ada"/>
    <path id="Path_8" data-name="Path 8" d="M901.927,256.813h-25.79a1.78,1.78,0,0,1-1.779-1.779V239.471a1.781,1.781,0,0,1,1.779-1.779h25.79a1.781,1.781,0,0,1,1.779,1.779v15.563A1.78,1.78,0,0,1,901.927,256.813Zm-25.79-17.342v15.563h25.792V239.471Z" transform="translate(-301.486 19.876)" fill="#fff"/>
    <path id="Path_10" data-name="Path 10" d="M662.835,366.985H534.653a2.377,2.377,0,0,1-2.374-2.374v-31.8a2.377,2.377,0,0,1,2.374-2.374H662.835a2.376,2.376,0,0,1,2.374,2.374v31.8A2.377,2.377,0,0,1,662.835,366.985ZM534.653,331.391a1.426,1.426,0,0,0-1.424,1.424v31.8a1.426,1.426,0,0,0,1.424,1.424H662.835a1.426,1.426,0,0,0,1.424-1.424v-31.8a1.426,1.426,0,0,0-1.424-1.424Z" transform="translate(-97.019 -35.563)" fill="#428cf7"/>
    <circle id="Ellipse_5" data-name="Ellipse 5" cx="9.669" cy="9.669" r="9.669" transform="translate(447.882 302.261)" fill="#703ada"/>
    <path id="Path_11" data-name="Path 11" d="M640.808,356.8a1.612,1.612,0,0,0,0,3.223h75.974a1.612,1.612,0,1,0,0-3.223Z" transform="translate(-160.926 -51.32)" fill="#703ada"/>
    <path id="Path_12" data-name="Path 12" d="M640.808,380.842a1.612,1.612,0,0,0,0,3.223H673.5a1.612,1.612,0,1,0,0-3.223Z" transform="translate(-160.926 -65.688)" fill="#703ada"/>
    <path id="Path_13" data-name="Path 13" d="M431.369,361.935l-23.7,12.6-.3-10.5a70.175,70.175,0,0,0,21.9-7.2l2.478-6.123a4.15,4.15,0,0,1,7.055-1.077h0a4.151,4.151,0,0,1-.365,5.66Z" transform="translate(-22.36 -46.13)" fill="#ffb8b8"/>
    <path id="Path_14" data-name="Path 14" d="M322.854,539.662h0a4.656,4.656,0,0,1,.591-3.767l5.205-7.988a9.1,9.1,0,0,1,11.8-3.113h0c-2.188,3.724-1.883,6.99.755,9.829a47.32,47.32,0,0,0-11.238,7.661,4.656,4.656,0,0,1-7.115-2.622Z" transform="translate(28.257 -151.123)" fill="#2f2e41"/>
    <path id="Path_15" data-name="Path 15" d="M404.817,485.307h0a8.932,8.932,0,0,1-7.591,4.336l-34.58.262-1.5-8.7,15.3-4.5-12.9-9.9,14.1-16.5,25.605,23.865A8.932,8.932,0,0,1,404.817,485.307Z" transform="translate(5.271 -107.212)" fill="#3f3d56"/>
    <path id="Path_16" data-name="Path 16" d="M328.53,509.141h-8.1c-7.271-49.841-14.673-99.822,7.2-118.477l25.795,4.2-3.3,21.9-14.4,16.5Z" transform="translate(33.989 -71.559)" fill="#3f3d56"/>
    <path id="Path_17" data-name="Path 17" d="M344.348,691.955h0a4.656,4.656,0,0,1-3.767-.591l-8.793-1.182a9.1,9.1,0,0,1-3.114-11.8h0c3.724,2.187,6.99,1.882,9.829-.756,2.006,4.05,5.31,3.8,8.467,7.215a4.656,4.656,0,0,1-2.622,7.115Z" transform="translate(25.289 -243.082)" fill="#2f2e41"/>
    <path id="Path_18" data-name="Path 18" d="M376.889,277.151l-15-3.6c2.491-5.1,2.7-10.771,1.5-16.8l10.2-.3A78.3,78.3,0,0,0,376.889,277.151Z" transform="translate(4.826 8.661)" fill="#ffb8b8"/>
    <path id="Path_19" data-name="Path 19" d="M367.7,343.283c-10.917,7.439-18.631.255-24.518-10.831.818-6.783-.507-14.9-2.959-23.721a16.147,16.147,0,0,1,9.858-19.471h0l12.9,5.4c10.951,8.927,13.107,18.6,9,28.794Z" transform="translate(18.141 -10.948)" fill="#703ada"/>
    <path id="Path_20" data-name="Path 20" d="M291.331,308.27l-12,6.3,21.3,12.6,2.963,7.309a3.877,3.877,0,0,1-2.329,5.121h0a3.877,3.877,0,0,1-5.134-3.437l-.3-5.094-27.067-8.932a6.329,6.329,0,0,1-3.972-3.867h0a6.329,6.329,0,0,1,2.375-7.363l21.765-14.932Z" transform="translate(63.088 -14.959)" fill="#ffb8b8"/>
    <path id="Path_21" data-name="Path 21" d="M337.08,304.764c-5-2.193-9.554.189-15.3,2.1l-.9-15.9c5.7-3.04,11.14-3.859,16.2-1.5Z" transform="translate(29.337 -10.254)" fill="#703ada"/>
    <circle id="Ellipse_6" data-name="Ellipse 6" cx="9.575" cy="9.575" r="9.575" transform="translate(362.828 253.84)" fill="#ffb8b8"/>
  </g>
</svg>
